# xmcd
#
# Track frame offsets: 
#        150
#        16900
#        30778
#        44581
#        60012
#        74473
#        89416
#        103221
#        118178
#        131450
#        145582
#        160018
#        175388
#        189115
#        202801
#        218651
#        234380
#        249694
#        263957
#        279778
#        295505
#        307702
#
# Disc length: 4298 seconds
#
# Revision: 0
# Processed by: cddbd v1.5.1PL2 Copyright (c) Steve Scherf et al.
# Submitted via: ExactAudioCopy v0.95b1
#
DISCID=2010c816
DTITLE=Tammy Wynette - Sometimes When We Touch and Higher Ground
DYEAR=1900
DGENRE=Country
TTITLE0=Sometimes When We Touch (Duet With Mark Gray)
TTITLE1=You Can Lead A Heart To Love (But You Can't Make It Fall)
TTITLE2=Breaking Away
TTITLE3=Everytime You Touch Her (Think Of Me)
TTITLE4=Between Twenty-Nine And Danger
TTITLE5=It's Only Over For You
TTITLE6=The Party Of The First Part
TTITLE7=It's Hard To Be The Dreamer (When I Used To Be The Dream)
TTITLE8=If It Ain't Love
TTITLE9=He Talks To Me
TTITLE10=Your Love (Duet With Ricky Skaggs)
TTITLE11=Tempted (Duet With Gene Watson)
TTITLE12=Some Things Will Never Change (Duet With Vern Gosdin)
TTITLE13=Beneath A Painted Sky (Duet With Emmylou Harris)
TTITLE14=I Wasn't Meant To Live My Life Alone (Duet With Vince Gill)
TTITLE15=Talkin' To Myself Again (Duet With The O'Kanes)
TTITLE16=Higher Ground (Duet With Larry, Steve and Randy Gatlin)
TTITLE17=A Slow Burning Fire (Duet With Ricky Van Shelton)
TTITLE18=There's No Heart So Strong (Duet With Paul Overstreet)
TTITLE19=All Through Throwing Good Love After Bad (Duet With Rodney Cr
TTITLE19=owell)
TTITLE20=Precious Memories (Duet With The Masters Five)
TTITLE21=Alive And Well
EXTD=
EXTT0=
EXTT1=
EXTT2=
EXTT3=
EXTT4=
EXTT5=
EXTT6=
EXTT7=
EXTT8=
EXTT9=
EXTT10=
EXTT11=
EXTT12=
EXTT13=
EXTT14=
EXTT15=
EXTT16=
EXTT17=
EXTT18=
EXTT19=
EXTT20=
EXTT21=
PLAYORDER=
